<svg width="120" height="12" viewBox="0 0 120 12" fill="none" xmlns="http://www.w3.org/2000/svg">
<path d="M4.68945 5.52441H7.28711V7.04199H4.68945V10.002H3.07617V7.04199H0.464844V5.52441H3.07617V2.75586H4.68945V5.52441ZM10.7527 5.26465H11.7644C12.2748 5.26009 12.6781 5.12793 12.9743 4.86816C13.2751 4.6084 13.4255 4.23242 13.4255 3.74023C13.4255 3.26628 13.3002 2.89941 13.0495 2.63965C12.8034 2.37533 12.4252 2.24316 11.9148 2.24316C11.4682 2.24316 11.1013 2.37305 10.8142 2.63281C10.5271 2.88802 10.3835 3.22298 10.3835 3.6377H8.72238C8.72238 3.12728 8.85682 2.66243 9.1257 2.24316C9.39914 1.82389 9.7774 1.49805 10.2605 1.26562C10.7481 1.02865 11.2927 0.910156 11.8943 0.910156C12.8877 0.910156 13.667 1.16081 14.2321 1.66211C14.8018 2.15885 15.0866 2.85156 15.0866 3.74023C15.0866 4.18685 14.9431 4.6084 14.656 5.00488C14.3734 5.39681 14.0066 5.69303 13.5554 5.89355C14.1023 6.0804 14.517 6.37435 14.7995 6.77539C15.0866 7.17643 15.2302 7.65495 15.2302 8.21094C15.2302 9.10417 14.9226 9.8151 14.3073 10.3438C13.6967 10.8724 12.8923 11.1367 11.8943 11.1367C10.9372 11.1367 10.1534 10.8815 9.5427 10.3711C8.93202 9.86068 8.62668 9.18164 8.62668 8.33398H10.2878C10.2878 8.77148 10.4336 9.12695 10.7253 9.40039C11.0215 9.67383 11.418 9.81055 11.9148 9.81055C12.4297 9.81055 12.8353 9.67383 13.1316 9.40039C13.4278 9.12695 13.5759 8.73047 13.5759 8.21094C13.5759 7.68685 13.421 7.28353 13.1111 7.00098C12.8012 6.71842 12.3409 6.57715 11.7302 6.57715H10.7527V5.26465ZM23.3373 3.67188C23.3373 4.15951 23.212 4.59473 22.9614 4.97754C22.7107 5.35579 22.3689 5.6543 21.936 5.87305C22.4555 6.11458 22.8543 6.44499 23.1323 6.86426C23.4148 7.28353 23.5561 7.75749 23.5561 8.28613C23.5561 9.16113 23.2599 9.85612 22.6674 10.3711C22.075 10.8815 21.2866 11.1367 20.3022 11.1367C19.3133 11.1367 18.5203 10.8792 17.9233 10.3643C17.3308 9.84928 17.0346 9.15658 17.0346 8.28613C17.0346 7.75293 17.1759 7.27441 17.4584 6.85059C17.741 6.42676 18.1375 6.10091 18.6479 5.87305C18.2195 5.6543 17.88 5.35579 17.6293 4.97754C17.3832 4.59473 17.2602 4.15951 17.2602 3.67188C17.2602 2.82422 17.5336 2.15202 18.0805 1.65527C18.6274 1.15853 19.3657 0.910156 20.2954 0.910156C21.2296 0.910156 21.9702 1.15853 22.517 1.65527C23.0639 2.15202 23.3373 2.82422 23.3373 3.67188ZM21.895 8.2041C21.895 7.71191 21.7468 7.31543 21.4506 7.01465C21.159 6.70931 20.7716 6.55664 20.2885 6.55664C19.8054 6.55664 19.4181 6.70703 19.1264 7.00781C18.8393 7.30859 18.6957 7.70736 18.6957 8.2041C18.6957 8.69173 18.837 9.08138 19.1196 9.37305C19.4067 9.66471 19.8009 9.81055 20.3022 9.81055C20.8035 9.81055 21.1931 9.66927 21.4711 9.38672C21.7537 9.10417 21.895 8.70996 21.895 8.2041ZM21.683 3.7334C21.683 3.30046 21.5577 2.94499 21.3071 2.66699C21.0564 2.38444 20.7192 2.24316 20.2954 2.24316C19.8715 2.24316 19.5366 2.3776 19.2905 2.64648C19.0444 2.91081 18.9213 3.27311 18.9213 3.7334C18.9213 4.18913 19.0444 4.55143 19.2905 4.82031C19.5411 5.08919 19.8784 5.22363 20.3022 5.22363C20.726 5.22363 21.061 5.08919 21.3071 4.82031C21.5577 4.55143 21.683 4.18913 21.683 3.7334ZM35.5595 6.80957C35.5595 8.24056 35.2906 9.32064 34.7528 10.0498C34.2196 10.7744 33.4061 11.1367 32.3124 11.1367C31.2369 11.1367 30.4257 10.7835 29.8788 10.0771C29.3365 9.36621 29.0585 8.31576 29.0448 6.92578V5.20312C29.0448 3.77214 29.3114 2.69889 29.8446 1.9834C30.3824 1.2679 31.2004 0.910156 32.2987 0.910156C33.3879 0.910156 34.1991 1.25879 34.7323 1.95605C35.2701 2.65332 35.5458 3.69694 35.5595 5.08691V6.80957ZM33.8983 4.9502C33.8983 4.01595 33.7707 3.33236 33.5155 2.89941C33.2603 2.46191 32.8547 2.24316 32.2987 2.24316C31.7564 2.24316 31.3576 2.45052 31.1024 2.86523C30.8472 3.27539 30.7128 3.91797 30.6991 4.79297V7.04883C30.6991 7.97852 30.829 8.67122 31.0888 9.12695C31.3485 9.58268 31.7564 9.81055 32.3124 9.81055C32.8456 9.81055 33.2398 9.60091 33.495 9.18164C33.7502 8.75781 33.8846 8.09701 33.8983 7.19922V4.9502ZM42.0191 6.83691C41.4632 7.4248 40.8137 7.71875 40.0709 7.71875C39.1959 7.71875 38.4986 7.41341 37.9791 6.80273C37.4596 6.1875 37.1998 5.38086 37.1998 4.38281C37.1998 3.72656 37.332 3.13184 37.5963 2.59863C37.8606 2.06543 38.2366 1.65072 38.7242 1.35449C39.2119 1.05827 39.777 0.910156 40.4195 0.910156C41.4221 0.910156 42.2174 1.28385 42.8053 2.03125C43.3932 2.77865 43.6871 3.77897 43.6871 5.03223V5.49707C43.6871 7.29264 43.2815 8.66211 42.4703 9.60547C41.6591 10.5488 40.4492 11.0273 38.8404 11.041H38.6422V9.66699H38.8814C39.8613 9.65332 40.6132 9.41862 41.1373 8.96289C41.6614 8.5026 41.9553 7.79395 42.0191 6.83691ZM40.4195 6.41992C40.7522 6.41992 41.0644 6.32422 41.3561 6.13281C41.6477 5.94141 41.8733 5.67708 42.0328 5.33984V4.69043C42.0328 3.95671 41.8824 3.36654 41.5816 2.91992C41.2809 2.47331 40.8912 2.25 40.4127 2.25C39.9342 2.25 39.5514 2.44824 39.2643 2.84473C38.9817 3.23665 38.8404 3.7334 38.8404 4.33496C38.8404 4.95931 38.984 5.46289 39.2711 5.8457C39.5582 6.22852 39.941 6.41992 40.4195 6.41992ZM50.7142 0.999023V2.37305H50.5091C49.5794 2.38672 48.8366 2.64193 48.2806 3.13867C47.7246 3.63542 47.3942 4.33952 47.2894 5.25098C47.8226 4.69043 48.5039 4.41016 49.3333 4.41016C50.2129 4.41016 50.9056 4.72005 51.4114 5.33984C51.9219 5.95964 52.1771 6.75944 52.1771 7.73926C52.1771 8.75098 51.8786 9.57129 51.2816 10.2002C50.6891 10.8245 49.9098 11.1367 48.9437 11.1367C47.9502 11.1367 47.1435 10.7699 46.5238 10.0361C45.9085 9.30241 45.6009 8.34082 45.6009 7.15137V6.58398C45.6009 4.83854 46.0247 3.47135 46.8724 2.48242C47.7246 1.49349 48.9482 0.999023 50.5433 0.999023H50.7142ZM48.93 5.75C48.5654 5.75 48.2305 5.85254 47.9251 6.05762C47.6243 6.2627 47.4033 6.53613 47.262 6.87793V7.38379C47.262 8.12207 47.417 8.70996 47.7269 9.14746C48.0368 9.5804 48.4378 9.79688 48.93 9.79688C49.4222 9.79688 49.8118 9.6123 50.0989 9.24316C50.3861 8.87402 50.5296 8.38867 50.5296 7.78711C50.5296 7.18555 50.3838 6.69564 50.0921 6.31738C49.8004 5.93913 49.4131 5.75 48.93 5.75ZM62.0476 11H60.3933V3.00879L57.9529 3.84277V2.44141L61.8357 1.0127H62.0476V11ZM70.2846 11H68.6303V3.00879L66.1899 3.84277V2.44141L70.0727 1.0127H70.2846V11ZM78.5217 11H76.8674V3.00879L74.427 3.84277V2.44141L78.3098 1.0127H78.5217V11ZM90.525 11H88.8707V3.00879L86.4303 3.84277V2.44141L90.3131 1.0127H90.525V11ZM98.7621 11H97.1078V3.00879L94.6673 3.84277V2.44141L98.5502 1.0127H98.7621V11ZM110.765 11H109.111V3.00879L106.671 3.84277V2.44141L110.554 1.0127H110.765V11ZM119.002 11H117.348V3.00879L114.908 3.84277V2.44141L118.791 1.0127H119.002V11Z" fill="#757575"/>
</svg>
